<svg width="512" height="512" viewBox="0 0 512 512" fill="none" xmlns="http://www.w3.org/2000/svg">
  <style>
    path { fill: black; }
    @media (prefers-color-scheme: dark) {
      path { fill: white; }
    }
  </style>
<path d="M235.73 436.36L247.062 424.843L229.458 407.266L247.062 389.688L235.73 378.172L206.593 407.266L235.73 436.36ZM274.581 436.36L303.718 407.266L274.581 378.172L263.249 389.688L280.853 407.266L263.249 424.843L274.581 436.36ZM182.311 480V334.532H328V480H182.311ZM198.499 463.837H311.812V350.695H198.499V463.837Z" fill="white"/>
<path d="M272.892 32V117.679C267.314 116.716 261.66 116.264 256 116.329C250.34 116.264 244.686 116.716 239.109 117.679V32M338.768 251.256C337.99 254.401 337.031 257.498 335.896 260.533L391.131 292.072V369.318H357.349V311.636L319.174 289.879C311.341 298.943 301.643 306.215 290.741 311.2C279.84 316.184 267.99 318.764 256 318.764C244.01 318.764 232.161 316.184 221.259 311.2C210.357 306.215 200.66 298.943 192.826 289.879L154.652 311.636V369.318H120.869V292.072L176.104 260.533C174.969 257.498 174.01 254.401 173.232 251.256H142.828L96.3762 282.121L77.7957 254.124L132.693 217.525H173.232C174.292 212.448 175.819 207.48 177.793 202.683L151.442 185.817L91.1399 200.659L83.032 166.927L157.861 148.712L196.88 174.517C212.668 159.065 233.893 150.411 256 150.411C278.107 150.411 299.333 159.065 315.12 174.517L353.464 148.712L428.968 166.927L420.86 200.659L360.558 185.648L334.207 202.514C336.191 207.365 337.718 212.391 338.768 217.525H379.307L434.205 253.955L415.624 281.952L369.173 251.256M239.109 234.391C239.109 231.055 238.118 227.794 236.262 225.02C234.406 222.247 231.768 220.085 228.681 218.809C225.595 217.532 222.199 217.198 218.922 217.849C215.645 218.5 212.636 220.106 210.273 222.465C207.911 224.823 206.302 227.829 205.65 231.1C204.999 234.372 205.333 237.763 206.612 240.845C207.89 243.927 210.055 246.561 212.833 248.414C215.611 250.267 218.876 251.256 222.217 251.256C226.697 251.256 230.994 249.48 234.161 246.317C237.329 243.154 239.109 238.864 239.109 234.391ZM306.674 234.391C306.674 231.055 305.684 227.794 303.828 225.02C301.972 222.247 299.334 220.085 296.247 218.809C293.161 217.532 289.764 217.198 286.488 217.849C283.211 218.5 280.201 220.106 277.839 222.465C275.477 224.823 273.868 227.829 273.216 231.1C272.564 234.372 272.899 237.763 274.177 240.845C275.456 243.927 277.621 246.561 280.399 248.414C283.176 250.267 286.442 251.256 289.783 251.256C294.263 251.256 298.559 249.48 301.727 246.317C304.895 243.154 306.674 238.864 306.674 234.391Z" fill="white"/>
</svg>
